<svg xmlns="http://www.w3.org/2000/svg" width="22" height="22" viewBox="0 0 22 22">
    <defs>
        <clipPath id="m1ar6pjuqa">
            <path data-name="Rectangle 29" style="fill:none" d="M0 0h22v22H0z"/>
        </clipPath>
    </defs>
    <g data-name="Group 156">
        <g data-name="Group 152" style="clip-path:url(#m1ar6pjuqa)">
            <path data-name="Path 288" d="M16.505 5.347v-.286a3.348 3.348 0 0 1 .01-.491.432.432 0 0 0-.257-.461l-.039-.025a2.579 2.579 0 0 0-1.675-.352 2.235 2.235 0 0 0-1.187.458.306.306 0 0 0-.147.293c.012.169.009.339.006.509v.187a.9.9 0 0 1-.016.121l-.005.055h-1.688V10.1h6.7V5.347zm-2.568-.009V4.738a.2.2 0 0 1 .107-.151 1.963 1.963 0 0 1 1.618 0 .2.2 0 0 1 .108.152V5.339zm1.281 3.136v-.8h2.259v1.737h-5.242V7.675h2.253v.8zM12.236 6.05h5.246v.92h-5.246z" transform="translate(-3.836 -1.239)" style="fill:#279655"/>
            <path data-name="Path 289" d="M27.945 25.005v-.287a3.252 3.252 0 0 1 .011-.49.433.433 0 0 0-.257-.461l-.039-.025a2.573 2.573 0 0 0-1.675-.352 2.232 2.232 0 0 0-1.188.458.306.306 0 0 0-.147.293c.012.17.009.339.007.51v.187a.867.867 0 0 1-.011.117l-.006.054h-1.692v4.751h6.7v-4.755zM25.377 25V24.4a.2.2 0 0 1 .107-.151 1.957 1.957 0 0 1 1.618 0 .2.2 0 0 1 .109.152V25zm1.281 3.135v-.8h2.26v1.734h-5.242v-1.736h2.253v.8zm-2.981-2.424h5.246v.92h-5.246z" transform="translate(-7.649 -7.791)" style="fill:#3a4d95"/>
            <path data-name="Path 290" d="M5 25.005v-.287a3.252 3.252 0 0 1 0-.49.432.432 0 0 0-.257-.461l-.039-.025a2.573 2.573 0 0 0-1.675-.352 2.228 2.228 0 0 0-1.187.458.305.305 0 0 0-.148.293c.012.17.009.339.007.51v.187a.867.867 0 0 1-.011.117l-.006.054H0v4.751h6.7v-4.755zM2.429 25V24.4a.2.2 0 0 1 .106-.151 1.959 1.959 0 0 1 1.619 0 .2.2 0 0 1 .108.152V25zm1.281 3.135v-.8h2.26v1.734H.728v-1.736h2.253v.8zM.729 25.707h5.246v.92H.729z" transform="translate(0 -7.791)" style="fill:#3a4d95"/>
            <path data-name="Path 291" d="M13.976 12.635a6.417 6.417 0 0 0 5.72-6.69A6.376 6.376 0 0 0 13.753.013Q13.548 0 13.347 0a6.329 6.329 0 0 0-6.33 5.425 6.045 6.045 0 0 0 .926 4.288 6.387 6.387 0 0 0 4.744 2.928l.247.032v3.065h-1.32V22h3.425v-6.269h-1.315v-3.067zm.285 8.6h-1.874v-4.726h1.874zm-.939-9.335a5.605 5.605 0 0 1-2.412-.547l-.293-.144a5.582 5.582 0 0 1-2.692-3.383v-.015a5.513 5.513 0 0 1-.125-.557 6.33 6.33 0 0 1-.043-.281c-.007-.061-.012-.124-.017-.186q-.015-.176-.018-.356v-.163c0-.127.009-.254.019-.383a5.518 5.518 0 0 1 1.448-3.306l.079-.085c.07-.073.142-.143.216-.212.051-.049.1-.1.158-.143s.126-.109.191-.16.156-.118.235-.175c.051-.036.1-.074.153-.109.136-.09.275-.175.419-.253l.06-.03q.193-.1.4-.189c.044-.019.089-.036.133-.054.116-.046.233-.089.352-.127L11.722 1q.2-.059.4-.1l.1-.022a5.591 5.591 0 0 1 1-.111h.117A5.594 5.594 0 0 1 18.654 4.6a5.45 5.45 0 0 1 .157.6v.019a5.5 5.5 0 0 1 .111 1.073v.039c0 .034 0 .067-.005.1a6.01 6.01 0 0 1-.039.569c-.009.077-.021.143-.033.213a5.382 5.382 0 0 1-.107.511c-.013.049-.024.1-.038.147a4.917 4.917 0 0 1-.164.479 5.465 5.465 0 0 1-.285.631l-.005.009a5 5 0 0 1-.257.419l-.055.08q-.108.155-.228.3c-.035.045-.071.089-.107.131s-.077.085-.116.127a5.625 5.625 0 0 1-1.4 1.121l-.27.151c-.049.023-.1.038-.149.059a5.6 5.6 0 0 1-2.329.513h-.011" transform="translate(-2.315)" style="fill:#3a4d95"/>
        </g>
    </g>
</svg>
