<svg data-name="Group 131" xmlns="http://www.w3.org/2000/svg" width="24.486" height="24.486" viewBox="0 0 24.486 24.486">
    <defs>
        <clipPath id="9fubji8dga">
            <path data-name="Rectangle 31" style="fill:none" d="M0 0h24.486v24.486H0z"/>
        </clipPath>
    </defs>
    <g data-name="Group 155" style="clip-path:url(#9fubji8dga)">
        <path data-name="Path 296" d="M24.3 23.3H1.161V.183A.183.183 0 0 0 .979 0h-.8A.183.183 0 0 0 0 .183v23.541c0 .57.19.762.752.762H24.3a.183.183 0 0 0 .183-.183v-.816a.183.183 0 0 0-.183-.187" style="stroke-width:.4px;stroke:#fff;fill:#1b3d85"/>
        <path data-name="Path 297" d="m24.715 20.516-1.937-1.937q-.64-.64-1.283-1.279a.6.6 0 0 0-.967 0l-.066.063-.9-.895a5.416 5.416 0 1 0-.878.877l.9.9-.057.059a.6.6 0 0 0 0 .968q1.642 1.647 3.29 3.288a.682.682 0 0 0 .471.235.7.7 0 0 0 .479-.238c.243-.238.483-.479.723-.721l.221-.222c.417-.418.419-.684.007-1.1M19.565 13.1a4.264 4.264 0 0 1-4.236 4.241h-.014a4.259 4.259 0 0 1-4.238-4.254 4.193 4.193 0 0 1 1.248-2.987 4.235 4.235 0 0 1 3.039-1.246 4.29 4.29 0 0 1 4.2 4.242m3.978 7.971-.259.232-2.53-2.53.253-.235z" transform="translate(-2.667 -2.069)" style="stroke-width:.8px;stroke:#fff;fill:#1b3d85"/>
        <path data-name="Path 298" d="M30.25 4.4a.56.56 0 0 0-.619-.561h-2.223a.184.184 0 0 0-.183.183v.811a.183.183 0 0 0 .183.183h.8l-3.792 3.632a.185.185 0 0 0-.057.137.189.189 0 0 0 .063.134l.615.533a.182.182 0 0 0 .246-.006l3.8-3.648v.878a.183.183 0 0 0 .183.183h.8a.183.183 0 0 0 .183-.183V4.397" transform="translate(-6.554 -1.032)" style="stroke-width:.4px;stroke:#fff;fill:#1b3d85"/>
        <path data-name="Path 299" d="m8.574 19.478-.591-.558a.182.182 0 0 0-.257.007l-4.188 4.394a.183.183 0 0 0 0 .247l.539.613a.2.2 0 0 0 .137.062.184.184 0 0 0 .132-.057l4.234-4.449a.182.182 0 0 0 .05-.131.184.184 0 0 0-.057-.128" transform="translate(-.938 -5.078)" style="stroke-width:.4px;stroke:#fff;fill:#1b3d85"/>
        <path data-name="Path 300" d="M11.255 13.448a4.427 4.427 0 1 1 4.419 4.436 4.443 4.443 0 0 1-4.419-4.436" transform="translate(-3.028 -2.432)" style="fill:#fff"/>
        <path data-name="Path 301" d="M15.622 18h-.015A4.623 4.623 0 0 1 11 13.381a4.623 4.623 0 0 1 4.654-4.594A4.606 4.606 0 0 1 15.622 18m-4.252-4.619a4.258 4.258 0 0 0 4.238 4.253h.013a4.263 4.263 0 0 0 4.236-4.24 4.29 4.29 0 0 0-4.2-4.242 4.259 4.259 0 0 0-4.287 4.228" transform="translate(-2.961 -2.364)" style="fill:#1b3d85"/>
        <path data-name="Path 302" d="m24.384 22.667.52-.485 2.8 2.794-.532.477-2.786-2.786" transform="translate(-6.561 -5.969)" style="fill:#fff"/>
        <path data-name="Path 303" d="M27.1 25.569a.18.18 0 0 1-.129-.054l-2.786-2.784a.183.183 0 0 1 0-.262l.52-.486a.183.183 0 0 1 .254 0l2.8 2.8a.18.18 0 0 1 .054.134.187.187 0 0 1-.061.132l-.532.476a.188.188 0 0 1-.122.046M24.579 22.6l2.53 2.53.259-.231-2.535-2.529z" transform="translate(-6.494 -5.902)" style="fill:#1b3d85"/>
        <path data-name="Path 304" d="m19.607 13.868-.523-.555a.183.183 0 0 0-.258-.007l-1.61 1.516a.729.729 0 0 0-.078-.1q-.931-.939-1.868-1.869a.692.692 0 0 0-.483-.232.55.55 0 0 0-.391.178c-.455.463-.9.93-1.333 1.377l-.542.563a.183.183 0 0 0-.009.244l.524.627a.183.183 0 0 0 .133.066.159.159 0 0 0 .138-.056l1.509-1.562 1.892 1.895a.614.614 0 0 0 1 .021q.88-.828 1.756-1.657c.038-.037.074-.075.113-.118l.053-.058a.219.219 0 0 0-.024-.276" transform="translate(-3.354 -3.397)" style="fill:#308742;stroke-width:.4px;stroke:#fff"/>
    </g>
</svg>
